<svg xmlns="http://www.w3.org/2000/svg" xmlns:xlink="http://www.w3.org/1999/xlink" width="140" zoomAndPan="magnify" viewBox="0 0 104.88 30.000001" height="40" preserveAspectRatio="xMidYMid meet" version="1.0"><defs><g/><clipPath id="46ec72d508"><path d="M 6.003906 4.628906 L 24.875 4.628906 L 24.875 20.597656 L 6.003906 20.597656 Z M 6.003906 4.628906 " clip-rule="nonzero"/></clipPath></defs><g fill="#ffffff" fill-opacity="1"><g transform="translate(30.416141, 17.510232)"><g><path d="M 8.9375 -2.84375 L 2.90625 -2.84375 L 1.65625 0 L -0.015625 0 L 5.125 -11.359375 L 6.734375 -11.359375 L 11.90625 0 L 10.1875 0 Z M 8.375 -4.140625 L 5.921875 -9.703125 L 3.46875 -4.140625 Z M 8.375 -4.140625 "/></g></g></g><g fill="#ffffff" fill-opacity="1"><g transform="translate(42.296485, 17.510232)"><g><path d="M 9.296875 0 L 6.84375 -3.484375 C 6.539062 -3.460938 6.304688 -3.453125 6.140625 -3.453125 L 3.328125 -3.453125 L 3.328125 0 L 1.703125 0 L 1.703125 -11.359375 L 6.140625 -11.359375 C 7.609375 -11.359375 8.765625 -11.003906 9.609375 -10.296875 C 10.453125 -9.597656 10.875 -8.632812 10.875 -7.40625 C 10.875 -6.53125 10.65625 -5.78125 10.21875 -5.15625 C 9.789062 -4.539062 9.175781 -4.09375 8.375 -3.8125 L 11.078125 0 Z M 6.09375 -4.84375 C 7.113281 -4.84375 7.894531 -5.0625 8.4375 -5.5 C 8.976562 -5.945312 9.25 -6.582031 9.25 -7.40625 C 9.25 -8.226562 8.976562 -8.859375 8.4375 -9.296875 C 7.894531 -9.734375 7.113281 -9.953125 6.09375 -9.953125 L 3.328125 -9.953125 L 3.328125 -4.84375 Z M 6.09375 -4.84375 "/></g></g></g><g fill="#ffffff" fill-opacity="1"><g transform="translate(54.095682, 17.510232)"><g><path d="M 5.015625 0.125 C 4.160156 0.125 3.332031 -0.00390625 2.53125 -0.265625 C 1.738281 -0.535156 1.117188 -0.878906 0.671875 -1.296875 L 1.265625 -2.5625 C 1.703125 -2.175781 2.253906 -1.859375 2.921875 -1.609375 C 3.597656 -1.367188 4.296875 -1.25 5.015625 -1.25 C 5.953125 -1.25 6.65625 -1.40625 7.125 -1.71875 C 7.59375 -2.039062 7.828125 -2.46875 7.828125 -3 C 7.828125 -3.394531 7.695312 -3.710938 7.4375 -3.953125 C 7.1875 -4.191406 6.875 -4.375 6.5 -4.5 C 6.125 -4.632812 5.597656 -4.785156 4.921875 -4.953125 C 4.066406 -5.160156 3.375 -5.363281 2.84375 -5.5625 C 2.320312 -5.769531 1.875 -6.085938 1.5 -6.515625 C 1.125 -6.941406 0.9375 -7.519531 0.9375 -8.25 C 0.9375 -8.851562 1.097656 -9.398438 1.421875 -9.890625 C 1.742188 -10.378906 2.226562 -10.769531 2.875 -11.0625 C 3.519531 -11.351562 4.328125 -11.5 5.296875 -11.5 C 5.960938 -11.5 6.617188 -11.410156 7.265625 -11.234375 C 7.921875 -11.054688 8.476562 -10.804688 8.9375 -10.484375 L 8.40625 -9.1875 C 7.925781 -9.488281 7.414062 -9.71875 6.875 -9.875 C 6.34375 -10.03125 5.816406 -10.109375 5.296875 -10.109375 C 4.367188 -10.109375 3.675781 -9.941406 3.21875 -9.609375 C 2.757812 -9.273438 2.53125 -8.84375 2.53125 -8.3125 C 2.53125 -7.925781 2.660156 -7.609375 2.921875 -7.359375 C 3.179688 -7.117188 3.503906 -6.929688 3.890625 -6.796875 C 4.273438 -6.660156 4.796875 -6.515625 5.453125 -6.359375 C 6.304688 -6.160156 6.992188 -5.957031 7.515625 -5.75 C 8.035156 -5.539062 8.484375 -5.222656 8.859375 -4.796875 C 9.234375 -4.378906 9.421875 -3.8125 9.421875 -3.09375 C 9.421875 -2.5 9.253906 -1.957031 8.921875 -1.46875 C 8.597656 -0.976562 8.109375 -0.585938 7.453125 -0.296875 C 6.796875 -0.015625 5.984375 0.125 5.015625 0.125 Z M 5.015625 0.125 "/></g></g></g><g fill="#ffffff" fill-opacity="1"><g transform="translate(64.174502, 17.510232)"><g><path d="M 1.703125 -11.359375 L 3.328125 -11.359375 L 3.328125 -1.40625 L 9.484375 -1.40625 L 9.484375 0 L 1.703125 0 Z M 1.703125 -11.359375 "/></g></g></g><g fill="#ffffff" fill-opacity="1"><g transform="translate(73.815105, 17.510232)"><g><path d="M 8.9375 -2.84375 L 2.90625 -2.84375 L 1.65625 0 L -0.015625 0 L 5.125 -11.359375 L 6.734375 -11.359375 L 11.90625 0 L 10.1875 0 Z M 8.375 -4.140625 L 5.921875 -9.703125 L 3.46875 -4.140625 Z M 8.375 -4.140625 "/></g></g></g><g fill="#ffffff" fill-opacity="1"><g transform="translate(85.695449, 17.510232)"><g><path d="M 11.484375 -11.359375 L 11.484375 0 L 10.140625 0 L 3.328125 -8.46875 L 3.328125 0 L 1.703125 0 L 1.703125 -11.359375 L 3.03125 -11.359375 L 9.859375 -2.890625 L 9.859375 -11.359375 Z M 11.484375 -11.359375 "/></g></g></g><g clip-path="url(#46ec72d508)"><path fill="#ffffff" d="M 11.898438 5.425781 C 11.898438 4.988281 11.550781 4.628906 11.117188 4.628906 C 10.6875 4.628906 10.335938 4.988281 10.335938 5.425781 L 10.335938 7.824219 C 10.335938 8.035156 10.253906 8.238281 10.105469 8.386719 C 9.960938 8.535156 9.761719 8.621094 9.554688 8.621094 L 7.210938 8.621094 C 6.777344 8.621094 6.429688 8.980469 6.429688 9.417969 C 6.429688 9.859375 6.777344 10.21875 7.210938 10.21875 L 9.554688 10.21875 C 10.175781 10.21875 10.773438 9.964844 11.210938 9.515625 C 11.652344 9.066406 11.898438 8.457031 11.898438 7.824219 Z M 18.152344 5.425781 C 18.152344 4.988281 17.800781 4.628906 17.371094 4.628906 C 16.9375 4.628906 16.589844 4.988281 16.589844 5.425781 L 16.589844 7.824219 C 16.589844 8.457031 16.835938 9.066406 17.273438 9.515625 C 17.714844 9.964844 18.3125 10.21875 18.933594 10.21875 L 21.277344 10.21875 C 21.707031 10.21875 22.058594 9.859375 22.058594 9.417969 C 22.058594 8.980469 21.707031 8.621094 21.277344 8.621094 L 18.933594 8.621094 C 18.726562 8.621094 18.527344 8.535156 18.378906 8.386719 C 18.234375 8.238281 18.152344 8.035156 18.152344 7.824219 Z M 7.210938 15.007812 C 6.777344 15.007812 6.429688 15.367188 6.429688 15.804688 C 6.429688 16.246094 6.777344 16.605469 7.210938 16.605469 L 9.554688 16.605469 C 9.761719 16.605469 9.960938 16.6875 10.105469 16.839844 C 10.253906 16.988281 10.335938 17.191406 10.335938 17.402344 L 10.335938 19.796875 C 10.335938 20.238281 10.6875 20.597656 11.117188 20.597656 C 11.550781 20.597656 11.898438 20.238281 11.898438 19.796875 L 11.898438 17.402344 C 11.898438 16.769531 11.652344 16.160156 11.210938 15.710938 C 10.773438 15.261719 10.175781 15.007812 9.554688 15.007812 Z M 18.378906 16.839844 C 18.527344 16.6875 18.726562 16.605469 18.933594 16.605469 L 21.277344 16.605469 C 21.707031 16.605469 22.058594 16.246094 22.058594 15.804688 C 22.058594 15.367188 21.707031 15.007812 21.277344 15.007812 L 18.933594 15.007812 C 18.3125 15.007812 17.714844 15.261719 17.273438 15.710938 C 16.835938 16.160156 16.589844 16.769531 16.589844 17.402344 L 16.589844 19.796875 C 16.589844 20.238281 16.9375 20.597656 17.371094 20.597656 C 17.800781 20.597656 18.152344 20.238281 18.152344 19.796875 L 18.152344 17.402344 C 18.152344 17.191406 18.234375 16.988281 18.378906 16.839844 Z M 59.359375 17.519531 C 58.660156 17.519531 58.011719 17.4375 57.40625 17.273438 C 56.804688 17.101562 56.3125 16.863281 55.933594 16.554688 C 55.800781 16.457031 55.703125 16.351562 55.640625 16.242188 C 55.585938 16.125 55.5625 15.980469 55.5625 15.808594 C 55.5625 15.582031 55.628906 15.382812 55.761719 15.210938 C 55.902344 15.039062 56.0625 14.953125 56.238281 14.953125 C 56.335938 14.953125 56.429688 14.972656 56.515625 15.007812 C 56.613281 15.035156 56.730469 15.089844 56.863281 15.171875 C 57.242188 15.414062 57.628906 15.597656 58.019531 15.714844 C 58.410156 15.824219 58.839844 15.878906 59.308594 15.878906 C 59.890625 15.878906 60.339844 15.777344 60.648438 15.578125 C 60.960938 15.378906 61.113281 15.09375 61.113281 14.722656 C 61.113281 14.441406 60.96875 14.21875 60.675781 14.046875 C 60.390625 13.875 59.882812 13.710938 59.148438 13.554688 C 58.324219 13.382812 57.664062 13.175781 57.167969 12.933594 C 56.679688 12.6875 56.324219 12.382812 56.09375 12.023438 C 55.871094 11.660156 55.761719 11.222656 55.761719 10.707031 C 55.761719 10.136719 55.917969 9.625 56.238281 9.171875 C 56.566406 8.710938 57.011719 8.355469 57.582031 8.101562 C 58.15625 7.835938 58.800781 7.707031 59.519531 7.707031 C 60.777344 7.707031 61.8125 8.027344 62.628906 8.671875 C 62.761719 8.777344 62.855469 8.890625 62.90625 9.007812 C 62.96875 9.117188 63 9.253906 63 9.417969 C 63 9.644531 62.929688 9.84375 62.789062 10.015625 C 62.65625 10.1875 62.5 10.273438 62.324219 10.273438 C 62.226562 10.273438 62.132812 10.257812 62.042969 10.230469 C 61.964844 10.203125 61.847656 10.144531 61.699219 10.054688 C 61.335938 9.820312 61 9.644531 60.6875 9.523438 C 60.386719 9.40625 60.003906 9.347656 59.535156 9.347656 C 58.992188 9.347656 58.566406 9.457031 58.257812 9.675781 C 57.949219 9.882812 57.792969 10.171875 57.792969 10.542969 C 57.792969 10.761719 57.851562 10.941406 57.964844 11.085938 C 58.089844 11.222656 58.289062 11.34375 58.5625 11.453125 C 58.847656 11.5625 59.246094 11.675781 59.757812 11.792969 C 60.964844 12.0625 61.828125 12.410156 62.351562 12.835938 C 62.882812 13.261719 63.148438 13.847656 63.148438 14.585938 C 63.148438 15.167969 62.988281 15.679688 62.667969 16.121094 C 62.359375 16.566406 61.914062 16.910156 61.339844 17.152344 C 60.773438 17.398438 60.113281 17.519531 59.359375 17.519531 Z M 45.863281 16.109375 C 45.933594 16.269531 45.96875 16.414062 45.96875 16.542969 C 45.96875 16.796875 45.867188 17.011719 45.664062 17.195312 C 45.46875 17.367188 45.242188 17.453125 44.984375 17.453125 C 44.816406 17.453125 44.65625 17.40625 44.507812 17.316406 C 44.355469 17.214844 44.242188 17.070312 44.160156 16.882812 L 43.457031 15.28125 L 38.953125 15.28125 L 38.25 16.882812 C 38.171875 17.070312 38.054688 17.214844 37.902344 17.316406 C 37.761719 17.40625 37.601562 17.453125 37.425781 17.453125 C 37.167969 17.453125 36.9375 17.367188 36.734375 17.195312 C 36.53125 17.011719 36.429688 16.796875 36.429688 16.542969 C 36.429688 16.414062 36.464844 16.269531 36.535156 16.109375 L 40.121094 8.414062 C 40.21875 8.195312 40.367188 8.03125 40.5625 7.921875 C 40.757812 7.804688 40.964844 7.746094 41.1875 7.746094 C 41.417969 7.746094 41.628906 7.804688 41.824219 7.921875 C 42.019531 8.042969 42.167969 8.203125 42.273438 8.414062 Z M 39.65625 13.679688 L 42.753906 13.679688 L 41.210938 10.148438 Z M 33.265625 17.464844 C 32.953125 17.464844 32.703125 17.371094 32.507812 17.179688 C 32.320312 16.988281 32.226562 16.738281 32.226562 16.421875 L 32.226562 9.550781 L 30.074219 9.550781 C 29.421875 9.550781 29.09375 9.261719 29.09375 8.683594 C 29.09375 8.113281 29.421875 7.828125 30.074219 7.828125 L 36.453125 7.828125 C 37.109375 7.828125 37.4375 8.113281 37.4375 8.683594 C 37.4375 9.261719 37.109375 9.550781 36.453125 9.550781 L 34.300781 9.550781 L 34.300781 16.421875 C 34.300781 16.738281 34.207031 16.988281 34.023438 17.179688 C 33.835938 17.371094 33.582031 17.464844 33.265625 17.464844 Z M 47.390625 17.195312 C 47.578125 17.382812 47.828125 17.480469 48.148438 17.480469 C 48.464844 17.480469 48.71875 17.382812 48.90625 17.195312 C 49.089844 17.003906 49.183594 16.746094 49.183594 16.421875 L 49.183594 13.800781 L 51.414062 13.800781 C 52.433594 13.800781 53.226562 13.539062 53.792969 13.011719 C 54.359375 12.488281 54.644531 11.753906 54.644531 10.816406 C 54.644531 9.875 54.359375 9.140625 53.792969 8.617188 C 53.226562 8.089844 52.433594 7.828125 51.414062 7.828125 L 48.082031 7.828125 C 47.769531 7.828125 47.53125 7.914062 47.363281 8.085938 C 47.195312 8.257812 47.109375 8.503906 47.109375 8.820312 L 47.109375 16.421875 C 47.109375 16.746094 47.203125 17.003906 47.390625 17.195312 Z M 52.703125 10.828125 C 52.703125 11.742188 52.1875 12.199219 51.148438 12.199219 L 49.183594 12.199219 L 49.183594 9.445312 L 51.148438 9.445312 C 52.1875 9.445312 52.703125 9.90625 52.703125 10.828125 Z M 64.917969 17.195312 C 65.105469 17.382812 65.359375 17.480469 65.675781 17.480469 C 65.996094 17.480469 66.246094 17.382812 66.433594 17.195312 C 66.621094 17.003906 66.710938 16.746094 66.710938 16.421875 L 66.710938 8.804688 C 66.710938 8.488281 66.621094 8.234375 66.433594 8.046875 C 66.246094 7.855469 65.996094 7.761719 65.675781 7.761719 C 65.359375 7.761719 65.105469 7.855469 64.917969 8.046875 C 64.734375 8.234375 64.640625 8.488281 64.640625 8.804688 L 64.640625 16.421875 C 64.640625 16.746094 64.734375 17.003906 64.917969 17.195312 Z M 64.917969 17.195312 " fill-opacity="1" fill-rule="evenodd"/></g></svg>